<svg viewBox="0 0 64 64" fill="none" xmlns="http://www.w3.org/2000/svg"><g filter="url(#filter0_d_2_7)"><path d="M52.4147 37.766C50.649 48.8502 40.2322 56.4041 29.1481 54.6384C18.064 52.8727 10.51 42.4561 12.2757 31.3719C14.0413 20.2879 24.458 12.7337 35.5422 14.4994C46.6263 16.2651 54.1804 26.6819 52.4147 37.766Z" fill="#F1F2F3"/></g><path d="M25.7212 8.9417L11.8951 25.112L31.4905 49.105L45.1231 33.653L25.7212 8.9417Z" fill="#407BFF"/><path opacity="0.1" d="M25.7212 8.9417L11.8951 25.112L31.4905 49.105L45.1231 33.653L25.7212 8.9417Z" fill="black"/><path d="M12.4331 25.3022C12.7421 24.769 13.1222 24.2801 13.5628 23.8493L26.2166 11.4768C26.2166 11.4768 30.559 10.8336 31.4218 13.0145L15.3128 25.7152L12.4331 25.3022Z" fill="#F2F2F2"/><path d="M11.8066 25.02L29.6969 53.4934C29.6969 53.4934 31.478 54.7887 33.2949 54.0998L52.3754 41.7236L32.9009 11.0564L14.6076 24.8001L11.8066 25.02Z" fill="#407BFF"/><path d="M18.876 23.4949L30.5718 15.4073L30.7381 15.6478L19.0423 23.7354L18.876 23.4949Z" fill="#3F3D56"/><path d="M18.42 26.7542L18.6667 26.5974L33.4046 49.7807L33.1579 49.9376L18.42 26.7542Z" fill="#3F3D56"/><path d="M34.9891 50.4958L47.4159 41.6948L47.5849 41.9335L35.1581 50.7345L34.9891 50.4958Z" fill="#3F3D56"/><path d="M32.5109 16.0049L32.7539 15.8423L48.0395 38.6746L47.7965 38.8372L32.5109 16.0049Z" fill="#3F3D56"/><path d="M13.4753 24.1719L27.9863 11.33L28.1059 11.465L13.5949 24.3069L13.4753 24.1719Z" fill="#3F3D56"/><path d="M14.0169 24.3637L29.1734 11.4637L29.2904 11.6011L14.1339 24.5011L14.0169 24.3637Z" fill="#3F3D56"/><path d="M14.3817 24.3714L30.1017 11.743L30.2147 11.8837L14.4947 24.5121L14.3817 24.3714Z" fill="#3F3D56"/><defs><filter id="filter0_d_2_7" x="8.01965" y="14.2434" width="48.6511" height="48.6511" filterUnits="userSpaceOnUse" color-interpolation-filters="sRGB"><feFlood flood-opacity="0" result="BackgroundImageFix"/><feColorMatrix in="SourceAlpha" type="matrix" values="0 0 0 0 0 0 0 0 0 0 0 0 0 0 0 0 0 0 127 0" result="hardAlpha"/><feOffset dy="4"/><feGaussianBlur stdDeviation="2"/><feComposite in2="hardAlpha" operator="out"/><feColorMatrix type="matrix" values="0 0 0 0 0 0 0 0 0 0 0 0 0 0 0 0 0 0 0.1 0"/><feBlend mode="normal" in2="BackgroundImageFix" result="effect1_dropShadow_2_7"/><feBlend mode="normal" in="SourceGraphic" in2="effect1_dropShadow_2_7" result="shape"/></filter></defs></svg>
