<svg viewBox="-401.788 -6.942 180 72" xmlns="http://www.w3.org/2000/svg">
  <filter height="2" width="2" y="-.5" x="-.5" id="A">
    <feGaussianBlur in="SourceAlpha" stdDeviation="3.5"/>
    <feOffset dy="-9" dx="1"/>
    <feComposite k3="1" operator="arithmetic" in2="SourceAlpha" k2="-1" k1="0" k4="0"/>
    <feColorMatrix values="0 0 0 0 0 0 0 0 0 0 0 0 0 0 0 0 0 0 0.09 0"/>
  </filter>
  <filter height="2" width="2" y="-.5" x="-.5" id="B">
    <feGaussianBlur in="SourceAlpha" stdDeviation="17.5"/>
    <feOffset/>
    <feComposite k3="1" operator="arithmetic" in2="SourceAlpha" k2="-1" k1="0" k4="0"/>
    <feColorMatrix values="0 0 0 0 0 0 0 0 0 0 0 0 0 0 0 0 0 0 0.06 0"/>
  </filter>
  <rect style="fill: rgb(26, 115, 232);" width="180" height="72" rx="8" ry="8" x="-401.788" y="-6.942"/>
  <g transform="matrix(1.432375, 0, 0, 1.432375, -398.524933, -15.677277)">
    <g transform="matrix(0.090203, 0, 0, 0.090203, 11.921255, 15.418666)">
      <path d="M0 282.998l2.123-2.973L102.527 89.512l.212-2.017L58.48 4.358C54.77-2.606 44.33-.846 43.114 6.95z" fill="#ffc24a"/>
      <path d="M1.253 280.73l1.605-3.13L102.2 89.083 58.062 5.608c-3.67-6.892-12.987-5.135-14.2 2.58z" transform="matrix(1, 0, 0, 1, 0, 0)" fill="#ffa712"/>
      <g filter="url(#B)">
        <path d="M1.253 280.73l1.605-3.13L102.2 89.083 58.062 5.608c-3.67-6.892-12.987-5.135-14.2 2.58z" transform="matrix(1, 0, 0, 1, 0, 0)"/>
      </g>
      <path d="M135.005 150.38l32.955-33.75-32.964-62.93c-3.13-5.957-11.867-5.974-14.963 0L102.42 87.3v2.86z" fill="#f4bd62"/>
      <path d="M134.417 148.974l32.038-32.812-32.038-61.007c-3.042-5.8-10.433-6.398-13.443-.6l-17.705 34.1-.53 1.744z" transform="matrix(1, 0, 0, 1, 0, 0)" fill="#ffa50e"/>
      <g filter="url(#A)">
        <path d="M134.417 148.974l32.038-32.812-32.038-61.007c-3.042-5.8-10.433-6.398-13.443-.6l-17.705 34.1-.53 1.744z" transform="matrix(1, 0, 0, 1, 0, 0)"/>
      </g>
      <path d="M102.513 87.105L0 282.998l.962-.968 3.496-1.42 128.478-128 1.626-4.43z" fill="#f6820c"/>
      <path d="M139.12 347.55l116.275-64.848L222.2 78.2c-1.04-6.398-8.888-8.928-13.467-4.34L0 282.998l115.608 64.548a24.13 24.13 0 0 0 23.513.005" fill="#fde068"/>
      <path d="M254.354 282.16L221.402 79.218c-1.03-6.35-7.56-8.977-12.104-4.424L1.3 282.6l114.338 63.9c7.25 4.048 16.08 4.05 23.334.006z" fill="#fcca3f"/>
      <path d="M139.12 345.64c-7.3 4.076-16.207 4.074-23.513-.006L.93 282.015l-.93.983 115.608 64.548c7.306 4.08 16.204 4.08 23.513.005l116.275-64.848-.285-1.752z" fill="#eeab37"/>
    </g>
    <path d="M 42.9 38.237 L 41.115 38.237 L 41.115 24.345 L 49.215 24.345 L 49.215 26.052 L 42.9 26.052 L 42.9 30.612 L 48.605 30.612 L 48.605 32.282 L 42.9 32.282 L 42.9 38.237 Z M 52.353 26.343 C 52.107 26.589 51.81 26.713 51.461 26.713 C 51.125 26.719 50.802 26.585 50.569 26.343 C 50.328 26.109 50.194 25.787 50.199 25.451 C 50.193 25.115 50.327 24.792 50.569 24.559 C 50.803 24.318 51.125 24.184 51.461 24.189 C 51.797 24.183 52.12 24.317 52.353 24.559 C 52.594 24.793 52.728 25.115 52.723 25.451 C 52.729 25.787 52.595 26.11 52.353 26.343 Z M 52.353 38.237 L 50.568 38.237 L 50.568 28.73 L 52.353 28.73 L 52.353 38.237 Z M 56.206 38.237 L 54.42 38.237 L 54.42 28.73 L 56.127 28.73 L 56.127 30.282 L 56.204 30.282 C 56.384 29.765 56.757 29.338 57.32 29.002 C 57.883 28.666 58.42 28.497 58.96 28.497 C 59.5 28.497 59.937 28.575 60.3 28.73 L 59.62 30.4 C 59.387 30.3 59.07 30.264 58.67 30.264 C 58.023 30.264 57.45 30.519 56.953 31.03 C 56.456 31.541 56.206 32.21 56.206 33.038 L 56.206 38.238 L 56.206 38.237 Z M 64.994 38.537 C 63.558 38.537 62.391 38.059 61.492 37.101 C 60.593 36.143 60.142 34.935 60.142 33.473 C 60.142 32.089 60.578 30.899 61.442 29.903 C 62.306 28.907 63.442 28.409 64.789 28.409 C 66.189 28.409 67.327 28.869 68.175 29.787 C 69.023 30.705 69.445 31.934 69.445 33.474 L 69.425 33.804 L 61.925 33.804 C 61.977 34.761 62.297 35.518 62.885 36.074 C 63.436 36.615 64.18 36.915 64.952 36.908 C 66.232 36.908 67.099 36.365 67.552 35.278 L 69.152 35.938 C 68.852 36.675 68.33 37.293 67.619 37.791 C 66.908 38.289 66.034 38.538 64.999 38.538 L 64.994 38.537 Z M 67.554 32.337 C 67.514 31.794 67.266 31.277 66.807 30.785 C 66.348 30.293 65.665 30.048 64.76 30.048 C 64.1 30.048 63.528 30.255 63.043 30.668 C 62.558 31.081 62.225 31.638 62.043 32.338 L 67.543 32.338 L 67.554 32.337 Z M 75.917 38.537 C 75.192 38.537 74.542 38.382 73.967 38.071 C 73.392 37.76 72.961 37.373 72.667 36.907 L 72.6 36.907 L 72.6 38.227 L 70.893 38.227 L 70.893 24.345 L 72.678 24.345 L 72.678 28.73 L 72.6 30.05 L 72.678 30.05 C 72.963 29.584 73.393 29.196 73.978 28.886 C 74.563 28.576 75.204 28.42 75.928 28.42 C 77.158 28.42 78.228 28.905 79.11 29.875 C 79.992 30.845 80.45 32.048 80.45 33.475 C 80.45 34.902 80.004 36.115 79.11 37.075 C 78.216 38.035 77.157 38.53 75.928 38.53 L 75.917 38.537 Z M 75.617 36.907 C 76.445 36.907 77.157 36.593 77.751 35.967 C 78.345 35.341 78.643 34.509 78.643 33.474 C 78.643 32.439 78.345 31.608 77.751 30.981 C 77.157 30.354 76.444 30.041 75.617 30.041 C 74.801 30.025 74.019 30.364 73.473 30.971 C 72.885 31.601 72.59 32.426 72.59 33.474 C 72.59 34.522 72.884 35.356 73.473 35.977 C 74.062 36.598 74.776 36.909 75.617 36.909 L 75.617 36.907 Z M 85.13 38.537 C 84.13 38.537 83.277 38.237 82.598 37.664 C 81.919 37.091 81.578 36.312 81.578 35.364 C 81.578 34.329 81.978 33.518 82.781 32.929 C 83.584 32.34 84.573 32.046 85.751 32.046 C 86.799 32.046 87.659 32.24 88.331 32.628 L 88.331 32.356 C 88.331 31.656 88.091 31.098 87.613 30.678 C 87.135 30.258 86.546 30.048 85.847 30.048 C 85.329 30.048 84.86 30.171 84.44 30.418 C 84.04 30.64 83.734 30.998 83.577 31.427 L 81.947 30.729 C 82.167 30.159 82.6 29.633 83.247 29.149 C 83.894 28.665 84.747 28.421 85.807 28.421 C 87.023 28.421 88.032 28.777 88.834 29.488 C 89.636 30.199 90.037 31.202 90.037 32.495 L 90.037 38.238 L 88.34 38.238 L 88.34 36.918 L 88.262 36.918 C 87.55 38.004 86.509 38.548 85.138 38.548 L 85.13 38.537 Z M 85.43 36.907 C 86.167 36.907 86.837 36.632 87.438 36.082 C 88.039 35.532 88.34 34.882 88.34 34.132 C 87.836 33.718 87.08 33.512 86.07 33.512 C 85.203 33.512 84.55 33.7 84.11 34.075 C 83.67 34.45 83.45 34.89 83.45 35.395 C 83.45 35.861 83.65 36.229 84.052 36.501 C 84.454 36.773 84.912 36.909 85.43 36.909 L 85.43 36.907 Z M 95.23 38.537 C 94.17 38.537 93.293 38.277 92.6 37.761 C 91.925 37.265 91.398 36.595 91.077 35.821 L 92.677 35.161 C 93.181 36.361 94.042 36.946 95.257 36.946 C 95.813 36.946 96.269 36.823 96.625 36.576 C 96.981 36.329 97.159 36.006 97.159 35.606 C 97.159 34.986 96.726 34.566 95.859 34.346 L 93.939 33.88 C 93.331 33.725 92.755 33.43 92.212 32.997 C 91.669 32.564 91.4 32 91.4 31.252 C 91.4 30.412 91.772 29.729 92.516 29.205 C 93.26 28.681 94.143 28.419 95.166 28.419 C 96.006 28.419 96.766 28.619 97.416 28.991 C 98.066 29.363 98.548 29.919 98.833 30.631 L 97.281 31.271 C 96.931 30.431 96.207 30.011 95.108 30.011 C 94.578 30.011 94.131 30.111 93.768 30.341 C 93.405 30.571 93.225 30.858 93.225 31.233 C 93.225 31.776 93.645 32.145 94.485 32.339 L 96.367 32.785 C 97.259 32.992 97.919 33.348 98.347 33.852 C 98.775 34.356 98.987 34.926 98.987 35.559 C 98.987 36.413 98.637 37.124 97.939 37.693 C 97.241 38.262 96.341 38.547 95.242 38.547 L 95.23 38.537 Z M 104.737 38.537 C 103.301 38.537 102.133 38.059 101.235 37.101 C 100.337 36.143 99.885 34.935 99.885 33.473 C 99.885 32.089 100.321 30.899 101.185 29.903 C 102.049 28.907 103.185 28.409 104.532 28.409 C 105.932 28.409 107.07 28.869 107.918 29.787 C 108.766 30.705 109.188 31.934 109.188 33.474 L 109.188 33.804 L 101.688 33.804 C 101.738 34.761 102.06 35.518 102.648 36.074 C 103.199 36.615 103.942 36.915 104.714 36.908 C 105.994 36.908 106.861 36.365 107.314 35.278 L 108.914 35.938 C 108.614 36.675 108.092 37.293 107.381 37.791 C 106.67 38.289 105.796 38.538 104.761 38.538 L 104.737 38.537 Z M 107.297 32.337 C 107.257 31.794 107.009 31.277 106.55 30.785 C 106.091 30.293 105.408 30.048 104.503 30.048 C 103.874 30.037 103.263 30.258 102.786 30.669 C 102.301 31.083 101.968 31.639 101.786 32.339 L 107.286 32.339 L 107.297 32.337 Z" style="fill: rgb(255, 255, 255);"/>
  </g>
  <defs>
    <path id="C" d="M134.417 148.974l32.038-32.812-32.038-61.007c-3.042-5.8-10.433-6.398-13.443-.6l-17.705 34.1-.53 1.744z"/>
    <path id="D" d="M1.253 280.73l1.605-3.13L102.2 89.083 58.062 5.608c-3.67-6.892-12.987-5.135-14.2 2.58z"/>
  </defs>
</svg>
